<svg xmlns="http://www.w3.org/2000/svg" version="1.1" xmlns:xlink="http://www.w3.org/1999/xlink" xmlns:svgjs="http://svgjs.dev/svgjs" width="1376" height="700" preserveAspectRatio="none" viewBox="0 0 1376 700"><g mask="url(&quot;#SvgjsMask3177&quot;)" fill="none"><rect width="1376" height="700" x="0" y="0" fill="url(&quot;#SvgjsLinearGradient3178&quot;)"></rect><path d="M-53.14 691.99L-53.14 691.99" stroke="rgba(227, 132, 255, 1)" stroke-width="1.5"></path><path d="M-53.14 691.99L-54.5 812.29" stroke="rgba(227, 132, 255, 1)" stroke-width="1.5"></path><path d="M-53.14 691.99L107.38 643.81" stroke="rgba(227, 132, 255, 1)" stroke-width="1.5"></path><path d="M-53.14 691.99L80.39 796.64" stroke="rgba(227, 132, 255, 1)" stroke-width="1.5"></path><path d="M-53.14 691.99L106.73 503.87" stroke="rgba(227, 132, 255, 1)" stroke-width="1.5"></path><path d="M-54.5 812.29L-54.5 812.29" stroke="rgba(227, 132, 255, 1)" stroke-width="1.5"></path><path d="M-54.5 812.29L80.39 796.64" stroke="rgba(227, 132, 255, 1)" stroke-width="1.5"></path><path d="M106.73 503.87L106.73 503.87" stroke="rgba(227, 132, 255, 1)" stroke-width="1.5"></path><path d="M106.73 503.87L192.9 553.59" stroke="rgba(227, 132, 255, 1)" stroke-width="1.5"></path><path d="M106.73 503.87L107.38 643.81" stroke="rgba(227, 132, 255, 1)" stroke-width="1.5"></path><path d="M106.73 503.87L199.53 685.92" stroke="rgba(227, 132, 255, 1)" stroke-width="1.5"></path><path d="M107.38 643.81L107.38 643.81" stroke="rgba(227, 132, 255, 1)" stroke-width="1.5"></path><path d="M107.38 643.81L199.53 685.92" stroke="rgba(227, 132, 255, 1)" stroke-width="1.5"></path><path d="M107.38 643.81L192.9 553.59" stroke="rgba(227, 132, 255, 1)" stroke-width="1.5"></path><path d="M107.38 643.81L80.39 796.64" stroke="rgba(227, 132, 255, 1)" stroke-width="1.5"></path><path d="M107.38 643.81L219.69 804.92" stroke="rgba(227, 132, 255, 1)" stroke-width="1.5"></path><path d="M80.39 796.64L80.39 796.64" stroke="rgba(227, 132, 255, 1)" stroke-width="1.5"></path><path d="M80.39 796.64L219.69 804.92" stroke="rgba(227, 132, 255, 1)" stroke-width="1.5"></path><path d="M80.39 796.64L199.53 685.92" stroke="rgba(227, 132, 255, 1)" stroke-width="1.5"></path><path d="M80.39 796.64L192.9 553.59" stroke="rgba(227, 132, 255, 1)" stroke-width="1.5"></path><path d="M192.9 553.59L192.9 553.59" stroke="rgba(227, 132, 255, 1)" stroke-width="1.5"></path><path d="M199.53 685.92L199.53 685.92" stroke="rgba(227, 132, 255, 1)" stroke-width="1.5"></path><path d="M199.53 685.92L219.69 804.92" stroke="rgba(227, 132, 255, 1)" stroke-width="1.5"></path><path d="M199.53 685.92L192.9 553.59" stroke="rgba(227, 132, 255, 1)" stroke-width="1.5"></path><path d="M199.53 685.92L372.64 640.46" stroke="rgba(227, 132, 255, 1)" stroke-width="1.5"></path><path d="M219.69 804.92L219.69 804.92" stroke="rgba(227, 132, 255, 1)" stroke-width="1.5"></path><path d="M404.69 552.39L404.69 552.39" stroke="rgba(227, 132, 255, 1)" stroke-width="1.5"></path><path d="M404.69 552.39L372.64 640.46" stroke="rgba(227, 132, 255, 1)" stroke-width="1.5"></path><path d="M404.69 552.39L526.55 495.26" stroke="rgba(227, 132, 255, 1)" stroke-width="1.5"></path><path d="M404.69 552.39L536.5 688.67" stroke="rgba(227, 132, 255, 1)" stroke-width="1.5"></path><path d="M404.69 552.39L192.9 553.59" stroke="rgba(227, 132, 255, 1)" stroke-width="1.5"></path><path d="M404.69 552.39L547.66 366.08" stroke="rgba(227, 132, 255, 1)" stroke-width="1.5"></path><path d="M404.69 552.39L410.89 787.93" stroke="rgba(227, 132, 255, 1)" stroke-width="1.5"></path><path d="M372.64 640.46L372.64 640.46" stroke="rgba(227, 132, 255, 1)" stroke-width="1.5"></path><path d="M410.89 787.93L410.89 787.93" stroke="rgba(227, 132, 255, 1)" stroke-width="1.5"></path><path d="M410.89 787.93L509.4 802.21" stroke="rgba(227, 132, 255, 1)" stroke-width="1.5"></path><path d="M547.66 366.08L547.66 366.08" stroke="rgba(227, 132, 255, 1)" stroke-width="1.5"></path><path d="M547.66 366.08L526.55 495.26" stroke="rgba(227, 132, 255, 1)" stroke-width="1.5"></path><path d="M547.66 366.08L708.92 405.5" stroke="rgba(227, 132, 255, 1)" stroke-width="1.5"></path><path d="M526.55 495.26L526.55 495.26" stroke="rgba(227, 132, 255, 1)" stroke-width="1.5"></path><path d="M536.5 688.67L536.5 688.67" stroke="rgba(227, 132, 255, 1)" stroke-width="1.5"></path><path d="M536.5 688.67L646.33 692.3" stroke="rgba(227, 132, 255, 1)" stroke-width="1.5"></path><path d="M536.5 688.67L509.4 802.21" stroke="rgba(227, 132, 255, 1)" stroke-width="1.5"></path><path d="M536.5 688.67L410.89 787.93" stroke="rgba(227, 132, 255, 1)" stroke-width="1.5"></path><path d="M536.5 688.67L372.64 640.46" stroke="rgba(227, 132, 255, 1)" stroke-width="1.5"></path><path d="M536.5 688.67L640.97 836.27" stroke="rgba(227, 132, 255, 1)" stroke-width="1.5"></path><path d="M509.4 802.21L509.4 802.21" stroke="rgba(227, 132, 255, 1)" stroke-width="1.5"></path><path d="M509.4 802.21L640.97 836.27" stroke="rgba(227, 132, 255, 1)" stroke-width="1.5"></path><path d="M509.4 802.21L646.33 692.3" stroke="rgba(227, 132, 255, 1)" stroke-width="1.5"></path><path d="M509.4 802.21L372.64 640.46" stroke="rgba(227, 132, 255, 1)" stroke-width="1.5"></path><path d="M708.92 405.5L708.92 405.5" stroke="rgba(227, 132, 255, 1)" stroke-width="1.5"></path><path d="M708.92 405.5L800.27 407.92" stroke="rgba(227, 132, 255, 1)" stroke-width="1.5"></path><path d="M708.92 405.5L679.25 539.88" stroke="rgba(227, 132, 255, 1)" stroke-width="1.5"></path><path d="M679.25 539.88L679.25 539.88" stroke="rgba(227, 132, 255, 1)" stroke-width="1.5"></path><path d="M679.25 539.88L823.8 548.8" stroke="rgba(227, 132, 255, 1)" stroke-width="1.5"></path><path d="M679.25 539.88L646.33 692.3" stroke="rgba(227, 132, 255, 1)" stroke-width="1.5"></path><path d="M679.25 539.88L526.55 495.26" stroke="rgba(227, 132, 255, 1)" stroke-width="1.5"></path><path d="M679.25 539.88L800.27 407.92" stroke="rgba(227, 132, 255, 1)" stroke-width="1.5"></path><path d="M679.25 539.88L536.5 688.67" stroke="rgba(227, 132, 255, 1)" stroke-width="1.5"></path><path d="M646.33 692.3L646.33 692.3" stroke="rgba(227, 132, 255, 1)" stroke-width="1.5"></path><path d="M646.33 692.3L640.97 836.27" stroke="rgba(227, 132, 255, 1)" stroke-width="1.5"></path><path d="M646.33 692.3L795.46 794.81" stroke="rgba(227, 132, 255, 1)" stroke-width="1.5"></path><path d="M646.33 692.3L823.8 548.8" stroke="rgba(227, 132, 255, 1)" stroke-width="1.5"></path><path d="M640.97 836.27L640.97 836.27" stroke="rgba(227, 132, 255, 1)" stroke-width="1.5"></path><path d="M853 -109.7L853 -109.7" stroke="rgba(227, 132, 255, 1)" stroke-width="1.5"></path><path d="M853 -109.7L988.08 -106.19" stroke="rgba(227, 132, 255, 1)" stroke-width="1.5"></path><path d="M853 -109.7L841.77 71.11" stroke="rgba(227, 132, 255, 1)" stroke-width="1.5"></path><path d="M853 -109.7L956.54 46.33" stroke="rgba(227, 132, 255, 1)" stroke-width="1.5"></path><path d="M841.77 71.11L841.77 71.11" stroke="rgba(227, 132, 255, 1)" stroke-width="1.5"></path><path d="M841.77 71.11L956.54 46.33" stroke="rgba(227, 132, 255, 1)" stroke-width="1.5"></path><path d="M841.77 71.11L842.41 227.58" stroke="rgba(227, 132, 255, 1)" stroke-width="1.5"></path><path d="M842.41 227.58L842.41 227.58" stroke="rgba(227, 132, 255, 1)" stroke-width="1.5"></path><path d="M842.41 227.58L982.4 226.57" stroke="rgba(227, 132, 255, 1)" stroke-width="1.5"></path><path d="M842.41 227.58L800.27 407.92" stroke="rgba(227, 132, 255, 1)" stroke-width="1.5"></path><path d="M842.41 227.58L956.54 46.33" stroke="rgba(227, 132, 255, 1)" stroke-width="1.5"></path><path d="M842.41 227.58L978.8 399.92" stroke="rgba(227, 132, 255, 1)" stroke-width="1.5"></path><path d="M842.41 227.58L708.92 405.5" stroke="rgba(227, 132, 255, 1)" stroke-width="1.5"></path><path d="M800.27 407.92L800.27 407.92" stroke="rgba(227, 132, 255, 1)" stroke-width="1.5"></path><path d="M800.27 407.92L823.8 548.8" stroke="rgba(227, 132, 255, 1)" stroke-width="1.5"></path><path d="M800.27 407.92L978.8 399.92" stroke="rgba(227, 132, 255, 1)" stroke-width="1.5"></path><path d="M823.8 548.8L823.8 548.8" stroke="rgba(227, 132, 255, 1)" stroke-width="1.5"></path><path d="M823.8 548.8L970.57 535.02" stroke="rgba(227, 132, 255, 1)" stroke-width="1.5"></path><path d="M823.8 548.8L944.94 678.22" stroke="rgba(227, 132, 255, 1)" stroke-width="1.5"></path><path d="M795.46 794.81L795.46 794.81" stroke="rgba(227, 132, 255, 1)" stroke-width="1.5"></path><path d="M795.46 794.81L640.97 836.27" stroke="rgba(227, 132, 255, 1)" stroke-width="1.5"></path><path d="M795.46 794.81L972.2 814.64" stroke="rgba(227, 132, 255, 1)" stroke-width="1.5"></path><path d="M795.46 794.81L944.94 678.22" stroke="rgba(227, 132, 255, 1)" stroke-width="1.5"></path><path d="M795.46 794.81L823.8 548.8" stroke="rgba(227, 132, 255, 1)" stroke-width="1.5"></path><path d="M988.08 -106.19L988.08 -106.19" stroke="rgba(227, 132, 255, 1)" stroke-width="1.5"></path><path d="M988.08 -106.19L956.54 46.33" stroke="rgba(227, 132, 255, 1)" stroke-width="1.5"></path><path d="M956.54 46.33L956.54 46.33" stroke="rgba(227, 132, 255, 1)" stroke-width="1.5"></path><path d="M956.54 46.33L1089.82 75.52" stroke="rgba(227, 132, 255, 1)" stroke-width="1.5"></path><path d="M982.4 226.57L982.4 226.57" stroke="rgba(227, 132, 255, 1)" stroke-width="1.5"></path><path d="M982.4 226.57L1112.78 251.11" stroke="rgba(227, 132, 255, 1)" stroke-width="1.5"></path><path d="M982.4 226.57L978.8 399.92" stroke="rgba(227, 132, 255, 1)" stroke-width="1.5"></path><path d="M982.4 226.57L956.54 46.33" stroke="rgba(227, 132, 255, 1)" stroke-width="1.5"></path><path d="M982.4 226.57L1089.82 75.52" stroke="rgba(227, 132, 255, 1)" stroke-width="1.5"></path><path d="M982.4 226.57L1126.11 370.11" stroke="rgba(227, 132, 255, 1)" stroke-width="1.5"></path><path d="M978.8 399.92L978.8 399.92" stroke="rgba(227, 132, 255, 1)" stroke-width="1.5"></path><path d="M978.8 399.92L970.57 535.02" stroke="rgba(227, 132, 255, 1)" stroke-width="1.5"></path><path d="M978.8 399.92L1126.11 370.11" stroke="rgba(227, 132, 255, 1)" stroke-width="1.5"></path><path d="M978.8 399.92L1102 517.97" stroke="rgba(227, 132, 255, 1)" stroke-width="1.5"></path><path d="M970.57 535.02L970.57 535.02" stroke="rgba(227, 132, 255, 1)" stroke-width="1.5"></path><path d="M970.57 535.02L1102 517.97" stroke="rgba(227, 132, 255, 1)" stroke-width="1.5"></path><path d="M944.94 678.22L944.94 678.22" stroke="rgba(227, 132, 255, 1)" stroke-width="1.5"></path><path d="M944.94 678.22L972.2 814.64" stroke="rgba(227, 132, 255, 1)" stroke-width="1.5"></path><path d="M972.2 814.64L972.2 814.64" stroke="rgba(227, 132, 255, 1)" stroke-width="1.5"></path><path d="M972.2 814.64L1122.53 838.77" stroke="rgba(227, 132, 255, 1)" stroke-width="1.5"></path><path d="M972.2 814.64L1090 711.93" stroke="rgba(227, 132, 255, 1)" stroke-width="1.5"></path><path d="M1161.46 -96.79L1161.46 -96.79" stroke="rgba(227, 132, 255, 1)" stroke-width="1.5"></path><path d="M1161.46 -96.79L1259.63 -101.46" stroke="rgba(227, 132, 255, 1)" stroke-width="1.5"></path><path d="M1161.46 -96.79L988.08 -106.19" stroke="rgba(227, 132, 255, 1)" stroke-width="1.5"></path><path d="M1161.46 -96.79L1089.82 75.52" stroke="rgba(227, 132, 255, 1)" stroke-width="1.5"></path><path d="M1161.46 -96.79L1281.43 68.28" stroke="rgba(227, 132, 255, 1)" stroke-width="1.5"></path><path d="M1089.82 75.52L1089.82 75.52" stroke="rgba(227, 132, 255, 1)" stroke-width="1.5"></path><path d="M1089.82 75.52L1112.78 251.11" stroke="rgba(227, 132, 255, 1)" stroke-width="1.5"></path><path d="M1112.78 251.11L1112.78 251.11" stroke="rgba(227, 132, 255, 1)" stroke-width="1.5"></path><path d="M1112.78 251.11L1126.11 370.11" stroke="rgba(227, 132, 255, 1)" stroke-width="1.5"></path><path d="M1112.78 251.11L1303.38 225.91" stroke="rgba(227, 132, 255, 1)" stroke-width="1.5"></path><path d="M1112.78 251.11L978.8 399.92" stroke="rgba(227, 132, 255, 1)" stroke-width="1.5"></path><path d="M1126.11 370.11L1126.11 370.11" stroke="rgba(227, 132, 255, 1)" stroke-width="1.5"></path><path d="M1126.11 370.11L1102 517.97" stroke="rgba(227, 132, 255, 1)" stroke-width="1.5"></path><path d="M1102 517.97L1102 517.97" stroke="rgba(227, 132, 255, 1)" stroke-width="1.5"></path><path d="M1102 517.97L1261.22 491.6" stroke="rgba(227, 132, 255, 1)" stroke-width="1.5"></path><path d="M1102 517.97L1090 711.93" stroke="rgba(227, 132, 255, 1)" stroke-width="1.5"></path><path d="M1090 711.93L1090 711.93" stroke="rgba(227, 132, 255, 1)" stroke-width="1.5"></path><path d="M1090 711.93L1122.53 838.77" stroke="rgba(227, 132, 255, 1)" stroke-width="1.5"></path><path d="M1090 711.93L944.94 678.22" stroke="rgba(227, 132, 255, 1)" stroke-width="1.5"></path><path d="M1122.53 838.77L1122.53 838.77" stroke="rgba(227, 132, 255, 1)" stroke-width="1.5"></path><path d="M1122.53 838.77L1272.88 855.89" stroke="rgba(227, 132, 255, 1)" stroke-width="1.5"></path><path d="M1122.53 838.77L944.94 678.22" stroke="rgba(227, 132, 255, 1)" stroke-width="1.5"></path><path d="M1122.53 838.77L1295.68 663.19" stroke="rgba(227, 132, 255, 1)" stroke-width="1.5"></path><path d="M1259.63 -101.46L1259.63 -101.46" stroke="rgba(227, 132, 255, 1)" stroke-width="1.5"></path><path d="M1259.63 -101.46L1419.98 -93.38" stroke="rgba(227, 132, 255, 1)" stroke-width="1.5"></path><path d="M1259.63 -101.46L1281.43 68.28" stroke="rgba(227, 132, 255, 1)" stroke-width="1.5"></path><path d="M1259.63 -101.46L1089.82 75.52" stroke="rgba(227, 132, 255, 1)" stroke-width="1.5"></path><path d="M1259.63 -101.46L1435.91 90.19" stroke="rgba(227, 132, 255, 1)" stroke-width="1.5"></path><path d="M1281.43 68.28L1281.43 68.28" stroke="rgba(227, 132, 255, 1)" stroke-width="1.5"></path><path d="M1281.43 68.28L1435.91 90.19" stroke="rgba(227, 132, 255, 1)" stroke-width="1.5"></path><path d="M1281.43 68.28L1303.38 225.91" stroke="rgba(227, 132, 255, 1)" stroke-width="1.5"></path><path d="M1303.38 225.91L1303.38 225.91" stroke="rgba(227, 132, 255, 1)" stroke-width="1.5"></path><path d="M1303.38 225.91L1294.78 369.55" stroke="rgba(227, 132, 255, 1)" stroke-width="1.5"></path><path d="M1303.38 225.91L1452.68 234.75" stroke="rgba(227, 132, 255, 1)" stroke-width="1.5"></path><path d="M1294.78 369.55L1294.78 369.55" stroke="rgba(227, 132, 255, 1)" stroke-width="1.5"></path><path d="M1294.78 369.55L1406.3 393.44" stroke="rgba(227, 132, 255, 1)" stroke-width="1.5"></path><path d="M1261.22 491.6L1261.22 491.6" stroke="rgba(227, 132, 255, 1)" stroke-width="1.5"></path><path d="M1261.22 491.6L1294.78 369.55" stroke="rgba(227, 132, 255, 1)" stroke-width="1.5"></path><path d="M1261.22 491.6L1420.2 528.25" stroke="rgba(227, 132, 255, 1)" stroke-width="1.5"></path><path d="M1261.22 491.6L1295.68 663.19" stroke="rgba(227, 132, 255, 1)" stroke-width="1.5"></path><path d="M1261.22 491.6L1406.3 393.44" stroke="rgba(227, 132, 255, 1)" stroke-width="1.5"></path><path d="M1295.68 663.19L1295.68 663.19" stroke="rgba(227, 132, 255, 1)" stroke-width="1.5"></path><path d="M1295.68 663.19L1399.57 680.96" stroke="rgba(227, 132, 255, 1)" stroke-width="1.5"></path><path d="M1295.68 663.19L1420.2 528.25" stroke="rgba(227, 132, 255, 1)" stroke-width="1.5"></path><path d="M1295.68 663.19L1272.88 855.89" stroke="rgba(227, 132, 255, 1)" stroke-width="1.5"></path><path d="M1272.88 855.89L1272.88 855.89" stroke="rgba(227, 132, 255, 1)" stroke-width="1.5"></path><path d="M1272.88 855.89L1427.87 838.31" stroke="rgba(227, 132, 255, 1)" stroke-width="1.5"></path><path d="M1419.98 -93.38L1419.98 -93.38" stroke="rgba(227, 132, 255, 1)" stroke-width="1.5"></path><path d="M1419.98 -93.38L1579.35 -108.44" stroke="rgba(227, 132, 255, 1)" stroke-width="1.5"></path><path d="M1435.91 90.19L1435.91 90.19" stroke="rgba(227, 132, 255, 1)" stroke-width="1.5"></path><path d="M1435.91 90.19L1452.68 234.75" stroke="rgba(227, 132, 255, 1)" stroke-width="1.5"></path><path d="M1435.91 90.19L1590.76 110.93" stroke="rgba(227, 132, 255, 1)" stroke-width="1.5"></path><path d="M1452.68 234.75L1452.68 234.75" stroke="rgba(227, 132, 255, 1)" stroke-width="1.5"></path><path d="M1452.68 234.75L1607.54 254.19" stroke="rgba(227, 132, 255, 1)" stroke-width="1.5"></path><path d="M1452.68 234.75L1406.3 393.44" stroke="rgba(227, 132, 255, 1)" stroke-width="1.5"></path><path d="M1406.3 393.44L1406.3 393.44" stroke="rgba(227, 132, 255, 1)" stroke-width="1.5"></path><path d="M1406.3 393.44L1420.2 528.25" stroke="rgba(227, 132, 255, 1)" stroke-width="1.5"></path><path d="M1406.3 393.44L1543.53 392.08" stroke="rgba(227, 132, 255, 1)" stroke-width="1.5"></path><path d="M1420.2 528.25L1420.2 528.25" stroke="rgba(227, 132, 255, 1)" stroke-width="1.5"></path><path d="M1420.2 528.25L1399.57 680.96" stroke="rgba(227, 132, 255, 1)" stroke-width="1.5"></path><path d="M1420.2 528.25L1543.53 392.08" stroke="rgba(227, 132, 255, 1)" stroke-width="1.5"></path><path d="M1420.2 528.25L1294.78 369.55" stroke="rgba(227, 132, 255, 1)" stroke-width="1.5"></path><path d="M1399.57 680.96L1399.57 680.96" stroke="rgba(227, 132, 255, 1)" stroke-width="1.5"></path><path d="M1399.57 680.96L1427.87 838.31" stroke="rgba(227, 132, 255, 1)" stroke-width="1.5"></path><path d="M1427.87 838.31L1427.87 838.31" stroke="rgba(227, 132, 255, 1)" stroke-width="1.5"></path><path d="M1427.87 838.31L1601.35 857.71" stroke="rgba(227, 132, 255, 1)" stroke-width="1.5"></path><path d="M1427.87 838.31L1295.68 663.19" stroke="rgba(227, 132, 255, 1)" stroke-width="1.5"></path><path d="M1427.87 838.31L1606.35 665.74" stroke="rgba(227, 132, 255, 1)" stroke-width="1.5"></path><path d="M1579.35 -108.44L1579.35 -108.44" stroke="rgba(227, 132, 255, 1)" stroke-width="1.5"></path><path d="M1579.35 -108.44L1590.76 110.93" stroke="rgba(227, 132, 255, 1)" stroke-width="1.5"></path><path d="M1579.35 -108.44L1435.91 90.19" stroke="rgba(227, 132, 255, 1)" stroke-width="1.5"></path><path d="M1579.35 -108.44L1259.63 -101.46" stroke="rgba(227, 132, 255, 1)" stroke-width="1.5"></path><path d="M1579.35 -108.44L1281.43 68.28" stroke="rgba(227, 132, 255, 1)" stroke-width="1.5"></path><path d="M1579.35 -108.44L1607.54 254.19" stroke="rgba(227, 132, 255, 1)" stroke-width="1.5"></path><path d="M1590.76 110.93L1590.76 110.93" stroke="rgba(227, 132, 255, 1)" stroke-width="1.5"></path><path d="M1590.76 110.93L1607.54 254.19" stroke="rgba(227, 132, 255, 1)" stroke-width="1.5"></path><path d="M1607.54 254.19L1607.54 254.19" stroke="rgba(227, 132, 255, 1)" stroke-width="1.5"></path><path d="M1607.54 254.19L1543.53 392.08" stroke="rgba(227, 132, 255, 1)" stroke-width="1.5"></path><path d="M1543.53 392.08L1543.53 392.08" stroke="rgba(227, 132, 255, 1)" stroke-width="1.5"></path><path d="M1543.53 392.08L1452.68 234.75" stroke="rgba(227, 132, 255, 1)" stroke-width="1.5"></path><path d="M1606.35 665.74L1606.35 665.74" stroke="rgba(227, 132, 255, 1)" stroke-width="1.5"></path><path d="M1606.35 665.74L1601.35 857.71" stroke="rgba(227, 132, 255, 1)" stroke-width="1.5"></path><path d="M1606.35 665.74L1399.57 680.96" stroke="rgba(227, 132, 255, 1)" stroke-width="1.5"></path><path d="M1606.35 665.74L1420.2 528.25" stroke="rgba(227, 132, 255, 1)" stroke-width="1.5"></path><path d="M1606.35 665.74L1543.53 392.08" stroke="rgba(227, 132, 255, 1)" stroke-width="1.5"></path><path d="M1606.35 665.74L1295.68 663.19" stroke="rgba(227, 132, 255, 1)" stroke-width="1.5"></path><path d="M1601.35 857.71L1601.35 857.71" stroke="rgba(227, 132, 255, 1)" stroke-width="1.5"></path><path d="M1601.35 857.71L1399.57 680.96" stroke="rgba(227, 132, 255, 1)" stroke-width="1.5"></path><path d="M1601.35 857.71L1272.88 855.89" stroke="rgba(227, 132, 255, 1)" stroke-width="1.5"></path><path d="M1601.35 857.71L1295.68 663.19" stroke="rgba(227, 132, 255, 1)" stroke-width="1.5"></path><circle r="5" cx="-53.14" cy="691.99" fill="rgba(227, 132, 255, 1)"></circle><circle r="5" cx="-54.5" cy="812.29" fill="rgba(227, 132, 255, 1)"></circle><circle r="5" cx="106.73" cy="503.87" fill="rgba(227, 132, 255, 1)"></circle><circle r="5" cx="107.38" cy="643.81" fill="rgba(227, 132, 255, 1)"></circle><circle r="5" cx="80.39" cy="796.64" fill="rgba(227, 132, 255, 1)"></circle><circle r="5" cx="192.9" cy="553.59" fill="rgba(227, 132, 255, 1)"></circle><circle r="5" cx="199.53" cy="685.92" fill="rgba(227, 132, 255, 1)"></circle><circle r="5" cx="219.69" cy="804.92" fill="rgba(227, 132, 255, 1)"></circle><circle r="5" cx="404.69" cy="552.39" fill="rgba(227, 132, 255, 1)"></circle><circle r="5" cx="372.64" cy="640.46" fill="rgba(227, 132, 255, 1)"></circle><circle r="5" cx="410.89" cy="787.93" fill="rgba(227, 132, 255, 1)"></circle><circle r="5" cx="547.66" cy="366.08" fill="rgba(227, 132, 255, 1)"></circle><circle r="5" cx="526.55" cy="495.26" fill="rgba(227, 132, 255, 1)"></circle><circle r="5" cx="536.5" cy="688.67" fill="rgba(227, 132, 255, 1)"></circle><circle r="5" cx="509.4" cy="802.21" fill="rgba(227, 132, 255, 1)"></circle><circle r="5" cx="708.92" cy="405.5" fill="rgba(227, 132, 255, 1)"></circle><circle r="5" cx="679.25" cy="539.88" fill="rgba(227, 132, 255, 1)"></circle><circle r="5" cx="646.33" cy="692.3" fill="rgba(227, 132, 255, 1)"></circle><circle r="5" cx="640.97" cy="836.27" fill="rgba(227, 132, 255, 1)"></circle><circle r="5" cx="853" cy="-109.7" fill="rgba(227, 132, 255, 1)"></circle><circle r="5" cx="841.77" cy="71.11" fill="rgba(227, 132, 255, 1)"></circle><circle r="5" cx="842.41" cy="227.58" fill="rgba(227, 132, 255, 1)"></circle><circle r="5" cx="800.27" cy="407.92" fill="rgba(227, 132, 255, 1)"></circle><circle r="5" cx="823.8" cy="548.8" fill="rgba(227, 132, 255, 1)"></circle><circle r="5" cx="795.46" cy="794.81" fill="rgba(227, 132, 255, 1)"></circle><circle r="5" cx="988.08" cy="-106.19" fill="rgba(227, 132, 255, 1)"></circle><circle r="5" cx="956.54" cy="46.33" fill="rgba(227, 132, 255, 1)"></circle><circle r="5" cx="982.4" cy="226.57" fill="rgba(227, 132, 255, 1)"></circle><circle r="5" cx="978.8" cy="399.92" fill="rgba(227, 132, 255, 1)"></circle><circle r="5" cx="970.57" cy="535.02" fill="rgba(227, 132, 255, 1)"></circle><circle r="5" cx="944.94" cy="678.22" fill="rgba(227, 132, 255, 1)"></circle><circle r="5" cx="972.2" cy="814.64" fill="rgba(227, 132, 255, 1)"></circle><circle r="5" cx="1161.46" cy="-96.79" fill="rgba(227, 132, 255, 1)"></circle><circle r="5" cx="1089.82" cy="75.52" fill="rgba(227, 132, 255, 1)"></circle><circle r="5" cx="1112.78" cy="251.11" fill="rgba(227, 132, 255, 1)"></circle><circle r="5" cx="1126.11" cy="370.11" fill="rgba(227, 132, 255, 1)"></circle><circle r="5" cx="1102" cy="517.97" fill="rgba(227, 132, 255, 1)"></circle><circle r="5" cx="1090" cy="711.93" fill="rgba(227, 132, 255, 1)"></circle><circle r="5" cx="1122.53" cy="838.77" fill="rgba(227, 132, 255, 1)"></circle><circle r="5" cx="1259.63" cy="-101.46" fill="rgba(227, 132, 255, 1)"></circle><circle r="5" cx="1281.43" cy="68.28" fill="rgba(227, 132, 255, 1)"></circle><circle r="5" cx="1303.38" cy="225.91" fill="rgba(227, 132, 255, 1)"></circle><circle r="5" cx="1294.78" cy="369.55" fill="rgba(227, 132, 255, 1)"></circle><circle r="5" cx="1261.22" cy="491.6" fill="rgba(227, 132, 255, 1)"></circle><circle r="5" cx="1295.68" cy="663.19" fill="rgba(227, 132, 255, 1)"></circle><circle r="5" cx="1272.88" cy="855.89" fill="rgba(227, 132, 255, 1)"></circle><circle r="5" cx="1419.98" cy="-93.38" fill="rgba(227, 132, 255, 1)"></circle><circle r="5" cx="1435.91" cy="90.19" fill="rgba(227, 132, 255, 1)"></circle><circle r="5" cx="1452.68" cy="234.75" fill="rgba(227, 132, 255, 1)"></circle><circle r="5" cx="1406.3" cy="393.44" fill="rgba(227, 132, 255, 1)"></circle><circle r="5" cx="1420.2" cy="528.25" fill="rgba(227, 132, 255, 1)"></circle><circle r="5" cx="1399.57" cy="680.96" fill="rgba(227, 132, 255, 1)"></circle><circle r="5" cx="1427.87" cy="838.31" fill="rgba(227, 132, 255, 1)"></circle><circle r="5" cx="1579.35" cy="-108.44" fill="rgba(227, 132, 255, 1)"></circle><circle r="5" cx="1590.76" cy="110.93" fill="rgba(227, 132, 255, 1)"></circle><circle r="5" cx="1607.54" cy="254.19" fill="rgba(227, 132, 255, 1)"></circle><circle r="5" cx="1543.53" cy="392.08" fill="rgba(227, 132, 255, 1)"></circle><circle r="5" cx="1606.35" cy="665.74" fill="rgba(227, 132, 255, 1)"></circle><circle r="5" cx="1601.35" cy="857.71" fill="rgba(227, 132, 255, 1)"></circle><path d="M546.99 493.58L546.99 493.58" stroke="hsl(301.29999999999995, 100%, 100%)" stroke-width="1.5"></path><path d="M546.99 493.58L650.2 489.48" stroke="hsl(301.29999999999995, 100%, 100%)" stroke-width="1.5"></path><path d="M546.99 493.58L674.34 641.4" stroke="hsl(301.29999999999995, 100%, 100%)" stroke-width="1.5"></path><path d="M503.32 807.98L503.32 807.98" stroke="hsl(301.29999999999995, 100%, 100%)" stroke-width="1.5"></path><path d="M503.32 807.98L495.8 705.19" stroke="hsl(301.29999999999995, 100%, 100%)" stroke-width="1.5"></path><path d="M503.32 807.98L344.85 809.65" stroke="hsl(301.29999999999995, 100%, 100%)" stroke-width="1.5"></path><path d="M503.32 807.98L673.59 829.26" stroke="hsl(301.29999999999995, 100%, 100%)" stroke-width="1.5"></path><path d="M503.32 807.98L378.65 672.33" stroke="hsl(301.29999999999995, 100%, 100%)" stroke-width="1.5"></path><path d="M969.43 664.08L969.43 664.08" stroke="hsl(301.29999999999995, 100%, 100%)" stroke-width="1.5"></path><path d="M969.43 664.08L845.74 707.06" stroke="hsl(301.29999999999995, 100%, 100%)" stroke-width="1.5"></path><path d="M969.43 664.08L999.76 522.38" stroke="hsl(301.29999999999995, 100%, 100%)" stroke-width="1.5"></path><path d="M969.43 664.08L1124.3 697.4" stroke="hsl(301.29999999999995, 100%, 100%)" stroke-width="1.5"></path><path d="M969.43 664.08L1110.33 790.66" stroke="hsl(301.29999999999995, 100%, 100%)" stroke-width="1.5"></path><path d="M969.43 664.08L859.26 503.39" stroke="hsl(301.29999999999995, 100%, 100%)" stroke-width="1.5"></path><path d="M969.43 664.08L977.6 861.95" stroke="hsl(301.29999999999995, 100%, 100%)" stroke-width="1.5"></path><path d="M1111.01 -42.19L1111.01 -42.19" stroke="hsl(301.29999999999995, 100%, 100%)" stroke-width="1.5"></path><path d="M1111.01 -42.19L1123.66 104.26" stroke="hsl(301.29999999999995, 100%, 100%)" stroke-width="1.5"></path><path d="M1111.01 -42.19L1300.51 -53.22" stroke="hsl(301.29999999999995, 100%, 100%)" stroke-width="1.5"></path><path d="M1111.01 -42.19L1282.27 67.33" stroke="hsl(301.29999999999995, 100%, 100%)" stroke-width="1.5"></path><path d="M1111.01 -42.19L1142.58 221.05" stroke="hsl(301.29999999999995, 100%, 100%)" stroke-width="1.5"></path><path d="M1111.01 -42.19L1243.41 187.85" stroke="hsl(301.29999999999995, 100%, 100%)" stroke-width="1.5"></path><path d="M1111.01 -42.19L1436.11 -70.4" stroke="hsl(301.29999999999995, 100%, 100%)" stroke-width="1.5"></path><path d="M1123.66 104.26L1123.66 104.26" stroke="hsl(301.29999999999995, 100%, 100%)" stroke-width="1.5"></path><path d="M1123.66 104.26L1142.58 221.05" stroke="hsl(301.29999999999995, 100%, 100%)" stroke-width="1.5"></path><path d="M1123.66 104.26L1243.41 187.85" stroke="hsl(301.29999999999995, 100%, 100%)" stroke-width="1.5"></path><path d="M1433.45 187.76L1433.45 187.76" stroke="hsl(301.29999999999995, 100%, 100%)" stroke-width="1.5"></path><path d="M1433.45 187.76L1567.6 193.76" stroke="hsl(301.29999999999995, 100%, 100%)" stroke-width="1.5"></path><path d="M1433.45 187.76L1455.24 40.79" stroke="hsl(301.29999999999995, 100%, 100%)" stroke-width="1.5"></path><path d="M1433.45 187.76L1590.61 106.88" stroke="hsl(301.29999999999995, 100%, 100%)" stroke-width="1.5"></path><path d="M1433.45 187.76L1243.41 187.85" stroke="hsl(301.29999999999995, 100%, 100%)" stroke-width="1.5"></path><path d="M1433.45 187.76L1282.27 67.33" stroke="hsl(301.29999999999995, 100%, 100%)" stroke-width="1.5"></path><path d="M1433.45 187.76L1396.2 408.93" stroke="hsl(301.29999999999995, 100%, 100%)" stroke-width="1.5"></path><path d="M1396.2 408.93L1396.2 408.93" stroke="hsl(301.29999999999995, 100%, 100%)" stroke-width="1.5"></path><path d="M1396.2 408.93L1427.66 497.33" stroke="hsl(301.29999999999995, 100%, 100%)" stroke-width="1.5"></path><path d="M1396.2 408.93L1289.07 396.82" stroke="hsl(301.29999999999995, 100%, 100%)" stroke-width="1.5"></path><path d="M1396.2 408.93L1262.96 510.37" stroke="hsl(301.29999999999995, 100%, 100%)" stroke-width="1.5"></path><path d="M1407.06 819.51L1407.06 819.51" stroke="hsl(301.29999999999995, 100%, 100%)" stroke-width="1.5"></path><path d="M1407.06 819.51L1404.73 706.11" stroke="hsl(301.29999999999995, 100%, 100%)" stroke-width="1.5"></path><path d="M1407.06 819.51L1280.19 812.43" stroke="hsl(301.29999999999995, 100%, 100%)" stroke-width="1.5"></path><path d="M1407.06 819.51L1293.93 700.32" stroke="hsl(301.29999999999995, 100%, 100%)" stroke-width="1.5"></path><path d="M1407.06 819.51L1594.79 794.98" stroke="hsl(301.29999999999995, 100%, 100%)" stroke-width="1.5"></path><path d="M1567.6 193.76L1567.6 193.76" stroke="hsl(301.29999999999995, 100%, 100%)" stroke-width="1.5"></path><path d="M1567.6 193.76L1590.61 106.88" stroke="hsl(301.29999999999995, 100%, 100%)" stroke-width="1.5"></path><path d="M1567.6 193.76L1593.83 362.01" stroke="hsl(301.29999999999995, 100%, 100%)" stroke-width="1.5"></path><path d="M1567.6 193.76L1455.24 40.79" stroke="hsl(301.29999999999995, 100%, 100%)" stroke-width="1.5"></path><path d="M1569.45 516.27L1569.45 516.27" stroke="hsl(301.29999999999995, 100%, 100%)" stroke-width="1.5"></path><path d="M1569.45 516.27L1427.66 497.33" stroke="hsl(301.29999999999995, 100%, 100%)" stroke-width="1.5"></path><path d="M1569.45 516.27L1593.83 362.01" stroke="hsl(301.29999999999995, 100%, 100%)" stroke-width="1.5"></path><path d="M1594.79 794.98L1594.79 794.98" stroke="hsl(301.29999999999995, 100%, 100%)" stroke-width="1.5"></path><path d="M1594.79 794.98L1404.73 706.11" stroke="hsl(301.29999999999995, 100%, 100%)" stroke-width="1.5"></path><path d="M-103.15 663.72L-103.15 663.72" stroke="hsl(301.29999999999995, 100%, 100%)" stroke-width="1.5"></path><path d="M-103.15 663.72L-56.23 820.72" stroke="hsl(301.29999999999995, 100%, 100%)" stroke-width="1.5"></path><path d="M-103.15 663.72L90.62 638.19" stroke="hsl(301.29999999999995, 100%, 100%)" stroke-width="1.5"></path><path d="M-103.15 663.72L109.21 839.01" stroke="hsl(301.29999999999995, 100%, 100%)" stroke-width="1.5"></path><path d="M-56.23 820.72L-56.23 820.72" stroke="hsl(301.29999999999995, 100%, 100%)" stroke-width="1.5"></path><path d="M-56.23 820.72L109.21 839.01" stroke="hsl(301.29999999999995, 100%, 100%)" stroke-width="1.5"></path><path d="M90.62 638.19L90.62 638.19" stroke="hsl(301.29999999999995, 100%, 100%)" stroke-width="1.5"></path><path d="M90.62 638.19L109.21 839.01" stroke="hsl(301.29999999999995, 100%, 100%)" stroke-width="1.5"></path><path d="M109.21 839.01L109.21 839.01" stroke="hsl(301.29999999999995, 100%, 100%)" stroke-width="1.5"></path><path d="M109.21 839.01L240.78 836.36" stroke="hsl(301.29999999999995, 100%, 100%)" stroke-width="1.5"></path><path d="M109.21 839.01L344.85 809.65" stroke="hsl(301.29999999999995, 100%, 100%)" stroke-width="1.5"></path><path d="M240.78 836.36L240.78 836.36" stroke="hsl(301.29999999999995, 100%, 100%)" stroke-width="1.5"></path><path d="M240.78 836.36L344.85 809.65" stroke="hsl(301.29999999999995, 100%, 100%)" stroke-width="1.5"></path><path d="M240.78 836.36L378.65 672.33" stroke="hsl(301.29999999999995, 100%, 100%)" stroke-width="1.5"></path><path d="M378.65 672.33L378.65 672.33" stroke="hsl(301.29999999999995, 100%, 100%)" stroke-width="1.5"></path><path d="M378.65 672.33L495.8 705.19" stroke="hsl(301.29999999999995, 100%, 100%)" stroke-width="1.5"></path><path d="M378.65 672.33L344.85 809.65" stroke="hsl(301.29999999999995, 100%, 100%)" stroke-width="1.5"></path><path d="M344.85 809.65L344.85 809.65" stroke="hsl(301.29999999999995, 100%, 100%)" stroke-width="1.5"></path><path d="M344.85 809.65L495.8 705.19" stroke="hsl(301.29999999999995, 100%, 100%)" stroke-width="1.5"></path><path d="M344.85 809.65L90.62 638.19" stroke="hsl(301.29999999999995, 100%, 100%)" stroke-width="1.5"></path><path d="M495.8 705.19L495.8 705.19" stroke="hsl(301.29999999999995, 100%, 100%)" stroke-width="1.5"></path><path d="M495.8 705.19L674.34 641.4" stroke="hsl(301.29999999999995, 100%, 100%)" stroke-width="1.5"></path><path d="M495.8 705.19L673.59 829.26" stroke="hsl(301.29999999999995, 100%, 100%)" stroke-width="1.5"></path><path d="M495.8 705.19L546.99 493.58" stroke="hsl(301.29999999999995, 100%, 100%)" stroke-width="1.5"></path><path d="M650.2 489.48L650.2 489.48" stroke="hsl(301.29999999999995, 100%, 100%)" stroke-width="1.5"></path><path d="M650.2 489.48L674.34 641.4" stroke="hsl(301.29999999999995, 100%, 100%)" stroke-width="1.5"></path><path d="M650.2 489.48L789.72 406.7" stroke="hsl(301.29999999999995, 100%, 100%)" stroke-width="1.5"></path><path d="M650.2 489.48L859.26 503.39" stroke="hsl(301.29999999999995, 100%, 100%)" stroke-width="1.5"></path><path d="M650.2 489.48L495.8 705.19" stroke="hsl(301.29999999999995, 100%, 100%)" stroke-width="1.5"></path><path d="M674.34 641.4L674.34 641.4" stroke="hsl(301.29999999999995, 100%, 100%)" stroke-width="1.5"></path><path d="M674.34 641.4L845.74 707.06" stroke="hsl(301.29999999999995, 100%, 100%)" stroke-width="1.5"></path><path d="M674.34 641.4L673.59 829.26" stroke="hsl(301.29999999999995, 100%, 100%)" stroke-width="1.5"></path><path d="M673.59 829.26L673.59 829.26" stroke="hsl(301.29999999999995, 100%, 100%)" stroke-width="1.5"></path><path d="M673.59 829.26L802.38 840.83" stroke="hsl(301.29999999999995, 100%, 100%)" stroke-width="1.5"></path><path d="M673.59 829.26L845.74 707.06" stroke="hsl(301.29999999999995, 100%, 100%)" stroke-width="1.5"></path><path d="M789.72 406.7L789.72 406.7" stroke="hsl(301.29999999999995, 100%, 100%)" stroke-width="1.5"></path><path d="M789.72 406.7L859.26 503.39" stroke="hsl(301.29999999999995, 100%, 100%)" stroke-width="1.5"></path><path d="M859.26 503.39L859.26 503.39" stroke="hsl(301.29999999999995, 100%, 100%)" stroke-width="1.5"></path><path d="M859.26 503.39L999.76 522.38" stroke="hsl(301.29999999999995, 100%, 100%)" stroke-width="1.5"></path><path d="M859.26 503.39L991.79 380.46" stroke="hsl(301.29999999999995, 100%, 100%)" stroke-width="1.5"></path><path d="M859.26 503.39L845.74 707.06" stroke="hsl(301.29999999999995, 100%, 100%)" stroke-width="1.5"></path><path d="M845.74 707.06L845.74 707.06" stroke="hsl(301.29999999999995, 100%, 100%)" stroke-width="1.5"></path><path d="M845.74 707.06L802.38 840.83" stroke="hsl(301.29999999999995, 100%, 100%)" stroke-width="1.5"></path><path d="M845.74 707.06L977.6 861.95" stroke="hsl(301.29999999999995, 100%, 100%)" stroke-width="1.5"></path><path d="M802.38 840.83L802.38 840.83" stroke="hsl(301.29999999999995, 100%, 100%)" stroke-width="1.5"></path><path d="M802.38 840.83L977.6 861.95" stroke="hsl(301.29999999999995, 100%, 100%)" stroke-width="1.5"></path><path d="M991.79 380.46L991.79 380.46" stroke="hsl(301.29999999999995, 100%, 100%)" stroke-width="1.5"></path><path d="M991.79 380.46L999.76 522.38" stroke="hsl(301.29999999999995, 100%, 100%)" stroke-width="1.5"></path><path d="M991.79 380.46L1161.32 379.33" stroke="hsl(301.29999999999995, 100%, 100%)" stroke-width="1.5"></path><path d="M999.76 522.38L999.76 522.38" stroke="hsl(301.29999999999995, 100%, 100%)" stroke-width="1.5"></path><path d="M977.6 861.95L977.6 861.95" stroke="hsl(301.29999999999995, 100%, 100%)" stroke-width="1.5"></path><path d="M977.6 861.95L1110.33 790.66" stroke="hsl(301.29999999999995, 100%, 100%)" stroke-width="1.5"></path><path d="M977.6 861.95L1124.3 697.4" stroke="hsl(301.29999999999995, 100%, 100%)" stroke-width="1.5"></path><path d="M977.6 861.95L673.59 829.26" stroke="hsl(301.29999999999995, 100%, 100%)" stroke-width="1.5"></path><path d="M1142.58 221.05L1142.58 221.05" stroke="hsl(301.29999999999995, 100%, 100%)" stroke-width="1.5"></path><path d="M1142.58 221.05L1243.41 187.85" stroke="hsl(301.29999999999995, 100%, 100%)" stroke-width="1.5"></path><path d="M1142.58 221.05L1161.32 379.33" stroke="hsl(301.29999999999995, 100%, 100%)" stroke-width="1.5"></path><path d="M1142.58 221.05L1282.27 67.33" stroke="hsl(301.29999999999995, 100%, 100%)" stroke-width="1.5"></path><path d="M1142.58 221.05L991.79 380.46" stroke="hsl(301.29999999999995, 100%, 100%)" stroke-width="1.5"></path><path d="M1161.32 379.33L1161.32 379.33" stroke="hsl(301.29999999999995, 100%, 100%)" stroke-width="1.5"></path><path d="M1161.32 379.33L1289.07 396.82" stroke="hsl(301.29999999999995, 100%, 100%)" stroke-width="1.5"></path><path d="M1161.32 379.33L1262.96 510.37" stroke="hsl(301.29999999999995, 100%, 100%)" stroke-width="1.5"></path><path d="M1143.62 562.33L1143.62 562.33" stroke="hsl(301.29999999999995, 100%, 100%)" stroke-width="1.5"></path><path d="M1143.62 562.33L1262.96 510.37" stroke="hsl(301.29999999999995, 100%, 100%)" stroke-width="1.5"></path><path d="M1143.62 562.33L1124.3 697.4" stroke="hsl(301.29999999999995, 100%, 100%)" stroke-width="1.5"></path><path d="M1143.62 562.33L999.76 522.38" stroke="hsl(301.29999999999995, 100%, 100%)" stroke-width="1.5"></path><path d="M1143.62 562.33L1161.32 379.33" stroke="hsl(301.29999999999995, 100%, 100%)" stroke-width="1.5"></path><path d="M1143.62 562.33L969.43 664.08" stroke="hsl(301.29999999999995, 100%, 100%)" stroke-width="1.5"></path><path d="M1143.62 562.33L1293.93 700.32" stroke="hsl(301.29999999999995, 100%, 100%)" stroke-width="1.5"></path><path d="M1124.3 697.4L1124.3 697.4" stroke="hsl(301.29999999999995, 100%, 100%)" stroke-width="1.5"></path><path d="M1124.3 697.4L1110.33 790.66" stroke="hsl(301.29999999999995, 100%, 100%)" stroke-width="1.5"></path><path d="M1124.3 697.4L1293.93 700.32" stroke="hsl(301.29999999999995, 100%, 100%)" stroke-width="1.5"></path><path d="M1110.33 790.66L1110.33 790.66" stroke="hsl(301.29999999999995, 100%, 100%)" stroke-width="1.5"></path><path d="M1110.33 790.66L1280.19 812.43" stroke="hsl(301.29999999999995, 100%, 100%)" stroke-width="1.5"></path><path d="M1110.33 790.66L1293.93 700.32" stroke="hsl(301.29999999999995, 100%, 100%)" stroke-width="1.5"></path><path d="M1110.33 790.66L1143.62 562.33" stroke="hsl(301.29999999999995, 100%, 100%)" stroke-width="1.5"></path><path d="M1300.51 -53.22L1300.51 -53.22" stroke="hsl(301.29999999999995, 100%, 100%)" stroke-width="1.5"></path><path d="M1300.51 -53.22L1282.27 67.33" stroke="hsl(301.29999999999995, 100%, 100%)" stroke-width="1.5"></path><path d="M1300.51 -53.22L1436.11 -70.4" stroke="hsl(301.29999999999995, 100%, 100%)" stroke-width="1.5"></path><path d="M1300.51 -53.22L1455.24 40.79" stroke="hsl(301.29999999999995, 100%, 100%)" stroke-width="1.5"></path><path d="M1300.51 -53.22L1123.66 104.26" stroke="hsl(301.29999999999995, 100%, 100%)" stroke-width="1.5"></path><path d="M1300.51 -53.22L1243.41 187.85" stroke="hsl(301.29999999999995, 100%, 100%)" stroke-width="1.5"></path><path d="M1282.27 67.33L1282.27 67.33" stroke="hsl(301.29999999999995, 100%, 100%)" stroke-width="1.5"></path><path d="M1282.27 67.33L1243.41 187.85" stroke="hsl(301.29999999999995, 100%, 100%)" stroke-width="1.5"></path><path d="M1282.27 67.33L1123.66 104.26" stroke="hsl(301.29999999999995, 100%, 100%)" stroke-width="1.5"></path><path d="M1243.41 187.85L1243.41 187.85" stroke="hsl(301.29999999999995, 100%, 100%)" stroke-width="1.5"></path><path d="M1289.07 396.82L1289.07 396.82" stroke="hsl(301.29999999999995, 100%, 100%)" stroke-width="1.5"></path><path d="M1289.07 396.82L1262.96 510.37" stroke="hsl(301.29999999999995, 100%, 100%)" stroke-width="1.5"></path><path d="M1289.07 396.82L1427.66 497.33" stroke="hsl(301.29999999999995, 100%, 100%)" stroke-width="1.5"></path><path d="M1289.07 396.82L1243.41 187.85" stroke="hsl(301.29999999999995, 100%, 100%)" stroke-width="1.5"></path><path d="M1289.07 396.82L1143.62 562.33" stroke="hsl(301.29999999999995, 100%, 100%)" stroke-width="1.5"></path><path d="M1262.96 510.37L1262.96 510.37" stroke="hsl(301.29999999999995, 100%, 100%)" stroke-width="1.5"></path><path d="M1293.93 700.32L1293.93 700.32" stroke="hsl(301.29999999999995, 100%, 100%)" stroke-width="1.5"></path><path d="M1293.93 700.32L1404.73 706.11" stroke="hsl(301.29999999999995, 100%, 100%)" stroke-width="1.5"></path><path d="M1293.93 700.32L1280.19 812.43" stroke="hsl(301.29999999999995, 100%, 100%)" stroke-width="1.5"></path><path d="M1280.19 812.43L1280.19 812.43" stroke="hsl(301.29999999999995, 100%, 100%)" stroke-width="1.5"></path><path d="M1280.19 812.43L1404.73 706.11" stroke="hsl(301.29999999999995, 100%, 100%)" stroke-width="1.5"></path><path d="M1280.19 812.43L1124.3 697.4" stroke="hsl(301.29999999999995, 100%, 100%)" stroke-width="1.5"></path><path d="M1436.11 -70.4L1436.11 -70.4" stroke="hsl(301.29999999999995, 100%, 100%)" stroke-width="1.5"></path><path d="M1436.11 -70.4L1455.24 40.79" stroke="hsl(301.29999999999995, 100%, 100%)" stroke-width="1.5"></path><path d="M1436.11 -70.4L1574.58 -108.71" stroke="hsl(301.29999999999995, 100%, 100%)" stroke-width="1.5"></path><path d="M1436.11 -70.4L1282.27 67.33" stroke="hsl(301.29999999999995, 100%, 100%)" stroke-width="1.5"></path><path d="M1436.11 -70.4L1590.61 106.88" stroke="hsl(301.29999999999995, 100%, 100%)" stroke-width="1.5"></path><path d="M1455.24 40.79L1455.24 40.79" stroke="hsl(301.29999999999995, 100%, 100%)" stroke-width="1.5"></path><path d="M1455.24 40.79L1590.61 106.88" stroke="hsl(301.29999999999995, 100%, 100%)" stroke-width="1.5"></path><path d="M1455.24 40.79L1282.27 67.33" stroke="hsl(301.29999999999995, 100%, 100%)" stroke-width="1.5"></path><path d="M1427.66 497.33L1427.66 497.33" stroke="hsl(301.29999999999995, 100%, 100%)" stroke-width="1.5"></path><path d="M1427.66 497.33L1262.96 510.37" stroke="hsl(301.29999999999995, 100%, 100%)" stroke-width="1.5"></path><path d="M1404.73 706.11L1404.73 706.11" stroke="hsl(301.29999999999995, 100%, 100%)" stroke-width="1.5"></path><path d="M1404.73 706.11L1427.66 497.33" stroke="hsl(301.29999999999995, 100%, 100%)" stroke-width="1.5"></path><path d="M1404.73 706.11L1262.96 510.37" stroke="hsl(301.29999999999995, 100%, 100%)" stroke-width="1.5"></path><path d="M1574.58 -108.71L1574.58 -108.71" stroke="hsl(301.29999999999995, 100%, 100%)" stroke-width="1.5"></path><path d="M1574.58 -108.71L1455.24 40.79" stroke="hsl(301.29999999999995, 100%, 100%)" stroke-width="1.5"></path><path d="M1574.58 -108.71L1590.61 106.88" stroke="hsl(301.29999999999995, 100%, 100%)" stroke-width="1.5"></path><path d="M1574.58 -108.71L1300.51 -53.22" stroke="hsl(301.29999999999995, 100%, 100%)" stroke-width="1.5"></path><path d="M1574.58 -108.71L1567.6 193.76" stroke="hsl(301.29999999999995, 100%, 100%)" stroke-width="1.5"></path><path d="M1574.58 -108.71L1433.45 187.76" stroke="hsl(301.29999999999995, 100%, 100%)" stroke-width="1.5"></path><path d="M1590.61 106.88L1590.61 106.88" stroke="hsl(301.29999999999995, 100%, 100%)" stroke-width="1.5"></path><path d="M1590.61 106.88L1593.83 362.01" stroke="hsl(301.29999999999995, 100%, 100%)" stroke-width="1.5"></path><path d="M1593.83 362.01L1593.83 362.01" stroke="hsl(301.29999999999995, 100%, 100%)" stroke-width="1.5"></path><path d="M1593.83 362.01L1396.2 408.93" stroke="hsl(301.29999999999995, 100%, 100%)" stroke-width="1.5"></path><path d="M1593.83 362.01L1427.66 497.33" stroke="hsl(301.29999999999995, 100%, 100%)" stroke-width="1.5"></path><path d="M1593.83 362.01L1433.45 187.76" stroke="hsl(301.29999999999995, 100%, 100%)" stroke-width="1.5"></path><circle r="25" cx="546.99" cy="493.58" fill="url(&quot;#SvgjsRadialGradient3179&quot;)"></circle><circle r="25" cx="503.32" cy="807.98" fill="url(&quot;#SvgjsRadialGradient3179&quot;)"></circle><circle r="25" cx="969.43" cy="664.08" fill="url(&quot;#SvgjsRadialGradient3179&quot;)"></circle><circle r="25" cx="1111.01" cy="-42.19" fill="url(&quot;#SvgjsRadialGradient3179&quot;)"></circle><circle r="25" cx="1123.66" cy="104.26" fill="url(&quot;#SvgjsRadialGradient3179&quot;)"></circle><circle r="25" cx="1433.45" cy="187.76" fill="url(&quot;#SvgjsRadialGradient3179&quot;)"></circle><circle r="25" cx="1396.2" cy="408.93" fill="url(&quot;#SvgjsRadialGradient3179&quot;)"></circle><circle r="25" cx="1407.06" cy="819.51" fill="url(&quot;#SvgjsRadialGradient3179&quot;)"></circle><circle r="25" cx="1567.6" cy="193.76" fill="url(&quot;#SvgjsRadialGradient3179&quot;)"></circle><circle r="25" cx="1569.45" cy="516.27" fill="url(&quot;#SvgjsRadialGradient3179&quot;)"></circle><circle r="25" cx="1594.79" cy="794.98" fill="url(&quot;#SvgjsRadialGradient3179&quot;)"></circle><circle r="5" cx="-103.15" cy="663.72" fill="#ffd1fe"></circle><circle r="5" cx="-56.23" cy="820.72" fill="#ffd1fe"></circle><circle r="5" cx="90.62" cy="638.19" fill="#ffd1fe"></circle><circle r="5" cx="109.21" cy="839.01" fill="#ffd1fe"></circle><circle r="5" cx="240.78" cy="836.36" fill="#ffd1fe"></circle><circle r="5" cx="378.65" cy="672.33" fill="#ffd1fe"></circle><circle r="5" cx="344.85" cy="809.65" fill="#ffd1fe"></circle><circle r="5" cx="495.8" cy="705.19" fill="#ffd1fe"></circle><circle r="5" cx="650.2" cy="489.48" fill="#ffd1fe"></circle><circle r="5" cx="674.34" cy="641.4" fill="#ffd1fe"></circle><circle r="5" cx="673.59" cy="829.26" fill="#ffd1fe"></circle><circle r="5" cx="789.72" cy="406.7" fill="#ffd1fe"></circle><circle r="5" cx="859.26" cy="503.39" fill="#ffd1fe"></circle><circle r="5" cx="845.74" cy="707.06" fill="#ffd1fe"></circle><circle r="5" cx="802.38" cy="840.83" fill="#ffd1fe"></circle><circle r="5" cx="991.79" cy="380.46" fill="#ffd1fe"></circle><circle r="5" cx="999.76" cy="522.38" fill="#ffd1fe"></circle><circle r="5" cx="977.6" cy="861.95" fill="#ffd1fe"></circle><circle r="5" cx="1142.58" cy="221.05" fill="#ffd1fe"></circle><circle r="5" cx="1161.32" cy="379.33" fill="#ffd1fe"></circle><circle r="5" cx="1143.62" cy="562.33" fill="#ffd1fe"></circle><circle r="5" cx="1124.3" cy="697.4" fill="#ffd1fe"></circle><circle r="5" cx="1110.33" cy="790.66" fill="#ffd1fe"></circle><circle r="5" cx="1300.51" cy="-53.22" fill="#ffd1fe"></circle><circle r="5" cx="1282.27" cy="67.33" fill="#ffd1fe"></circle><circle r="5" cx="1243.41" cy="187.85" fill="#ffd1fe"></circle><circle r="5" cx="1289.07" cy="396.82" fill="#ffd1fe"></circle><circle r="5" cx="1262.96" cy="510.37" fill="#ffd1fe"></circle><circle r="5" cx="1293.93" cy="700.32" fill="#ffd1fe"></circle><circle r="5" cx="1280.19" cy="812.43" fill="#ffd1fe"></circle><circle r="5" cx="1436.11" cy="-70.4" fill="#ffd1fe"></circle><circle r="5" cx="1455.24" cy="40.79" fill="#ffd1fe"></circle><circle r="5" cx="1427.66" cy="497.33" fill="#ffd1fe"></circle><circle r="5" cx="1404.73" cy="706.11" fill="#ffd1fe"></circle><circle r="5" cx="1574.58" cy="-108.71" fill="#ffd1fe"></circle><circle r="5" cx="1590.61" cy="106.88" fill="#ffd1fe"></circle><circle r="5" cx="1593.83" cy="362.01" fill="#ffd1fe"></circle></g><defs><mask id="SvgjsMask3177"><rect width="1376" height="700" fill="#ffffff"></rect></mask><linearGradient x1="50%" y1="100%" x2="50%" y2="0%" gradientUnits="userSpaceOnUse" id="SvgjsLinearGradient3178"><stop stop-color="rgba(7, 5, 11, 1)" offset="0"></stop><stop stop-color="rgba(57, 33, 64, 1)" offset="1"></stop><stop stop-color="rgba(75, 42, 84, 1)" offset="1"></stop></linearGradient><radialGradient id="SvgjsRadialGradient3179"><stop stop-color="#ffffff" offset="0.1"></stop><stop stop-color="rgba(255, 163, 253, 1)" offset="0.2"></stop><stop stop-color="rgba(255, 163, 253, 0)" offset="1"></stop></radialGradient></defs></svg>